<svg xmlns="http://www.w3.org/2000/svg" xmlns:xlink="http://www.w3.org/1999/xlink" width="150" zoomAndPan="magnify" viewBox="0 0 112.5 112.499997" height="150" preserveAspectRatio="xMidYMid meet" version="1.0"><defs><g/></defs><g fill="#5240fe" fill-opacity="1"><g transform="translate(9.00356, 82.095224)"><g><path d="M 21.21875 -44.703125 C 25.75 -44.703125 29.640625 -43.890625 32.890625 -42.265625 C 36.140625 -40.648438 38.644531 -38.179688 40.40625 -34.859375 C 42.175781 -31.535156 43.0625 -27.367188 43.0625 -22.359375 C 43.0625 -17.335938 42.175781 -13.164062 40.40625 -9.84375 C 38.644531 -6.519531 36.140625 -4.046875 32.890625 -2.421875 C 29.640625 -0.804688 25.75 0 21.21875 0 L 6.765625 0 L 6.765625 -44.703125 Z M 20.703125 -4.46875 C 24.429688 -4.46875 27.519531 -5.046875 29.96875 -6.203125 C 32.414062 -7.367188 34.269531 -9.265625 35.53125 -11.890625 C 36.789062 -14.523438 37.421875 -18.015625 37.421875 -22.359375 C 37.421875 -26.710938 36.789062 -30.195312 35.53125 -32.8125 C 34.269531 -35.4375 32.414062 -37.328125 29.96875 -38.484375 C 27.519531 -39.648438 24.429688 -40.234375 20.703125 -40.234375 L 12.015625 -40.234375 L 12.015625 -4.46875 Z M 20.703125 -4.46875 "/></g></g></g><g fill="#5240fe" fill-opacity="1"><g transform="translate(56.516072, 82.095224)"><g><path d="M 23.515625 0.640625 C 19.765625 0.640625 16.457031 -0.210938 13.59375 -1.921875 C 10.726562 -3.640625 8.488281 -6.21875 6.875 -9.65625 C 5.269531 -13.101562 4.46875 -17.335938 4.46875 -22.359375 C 4.46875 -27.367188 5.328125 -31.59375 7.046875 -35.03125 C 8.765625 -38.476562 11.15625 -41.054688 14.21875 -42.765625 C 17.28125 -44.484375 20.804688 -45.34375 24.796875 -45.34375 C 29.078125 -45.34375 32.59375 -44.570312 35.34375 -43.03125 C 38.101562 -41.5 40.050781 -39.203125 41.1875 -36.140625 L 37.765625 -34.125 L 37 -34.125 C 35.832031 -36.445312 34.257812 -38.113281 32.28125 -39.125 C 30.3125 -40.132812 27.816406 -40.640625 24.796875 -40.640625 C 14.992188 -40.640625 10.09375 -34.546875 10.09375 -22.359375 C 10.09375 -16.015625 11.320312 -11.382812 13.78125 -8.46875 C 16.25 -5.550781 19.707031 -4.09375 24.15625 -4.09375 C 28.226562 -4.09375 31.28125 -5.019531 33.3125 -6.875 C 35.34375 -8.726562 36.359375 -11.65625 36.359375 -15.65625 L 36.359375 -19.59375 L 23.640625 -19.59375 L 23.640625 -23.828125 L 41.46875 -23.828125 L 41.46875 0 L 36.609375 0 L 36.609375 -6 L 35.953125 -6.140625 C 34.773438 -3.835938 33.128906 -2.128906 31.015625 -1.015625 C 28.910156 0.0859375 26.410156 0.640625 23.515625 0.640625 Z M 23.515625 0.640625 "/></g></g></g></svg>